<svg width="96" height="32" viewBox="0 0 96 32" fill="none" xmlns="http://www.w3.org/2000/svg">
<g clip-path="url(#clip0_2376_4358)">
<path fill-rule="evenodd" clip-rule="evenodd" d="M20.1636 5.66266H5.44948C3.79957 5.66266 2.46214 7.00015 2.46214 8.65006C2.46214 10.3 3.79957 11.6374 5.44948 11.6374H12.9515L0.875114 23.7139C-0.291705 24.8804 -0.291705 26.7719 0.875114 27.9386C2.04167 29.1053 3.9332 29.1053 5.09976 27.9386L17.1762 15.8622V23.3641C17.1762 25.014 18.5137 26.3515 20.1636 26.3515C21.8135 26.3515 23.1509 25.014 23.1509 23.3641V8.65006C23.1509 7.00015 21.8135 5.66266 20.1636 5.66266Z" fill="black"/>
<path fill-rule="evenodd" clip-rule="evenodd" d="M28.7628 26.2244H43.4769C45.1268 26.2244 46.4643 24.887 46.4643 23.2371C46.4643 21.5872 45.1268 20.2497 43.4769 20.2497H35.9749L48.0513 8.1733C49.2181 7.00674 49.2181 5.11522 48.0513 3.94866C46.8847 2.78184 44.9932 2.78184 43.8267 3.94866L31.7501 16.0251V8.52303C31.7501 6.87312 30.4127 5.53569 28.7628 5.53569C27.1129 5.53569 25.7754 6.87312 25.7754 8.52303V23.2371C25.7754 24.887 27.1129 26.2244 28.7628 26.2244Z" fill="#FF7900"/>
<path fill-rule="evenodd" clip-rule="evenodd" d="M59.5978 13.0474C61.2802 13.0474 61.9126 11.6003 61.9126 10.1652C61.9126 8.65784 61.2802 7.21069 59.5978 7.21069C57.9156 7.21069 57.2831 8.65777 57.2831 10.1652C57.2831 11.6002 57.9156 13.0474 59.5978 13.0474ZM59.5978 5.61896C62.2347 5.61896 63.7858 7.60867 63.7858 10.1652C63.7858 12.6494 62.2347 14.6391 59.5978 14.6391C56.961 14.6391 55.4099 12.6494 55.4099 10.1652C55.4099 7.60867 56.961 5.61896 59.5978 5.61896ZM64.43 8.36604H65.9972V9.53092H66.0204C66.3223 8.74224 67.1349 8.19614 67.9359 8.19614C68.0521 8.19614 68.1913 8.22056 68.2958 8.25696V9.85848C68.1448 9.82208 67.9011 9.79785 67.7037 9.79785C66.4965 9.79785 66.0785 10.7078 66.0785 11.812V14.6391H64.43V8.36604ZM73.3378 11.4826C73.0311 11.7309 72.3917 11.7427 71.8293 11.8373C71.2669 11.9436 70.7555 12.121 70.7555 12.7358C70.7555 13.3624 71.2795 13.516 71.8677 13.516C73.2866 13.516 73.3378 12.4757 73.3378 12.1093V11.4826ZM69.1447 10.2414C69.2471 8.66911 70.7684 8.19614 72.251 8.19614C73.5677 8.19614 75.1529 8.46797 75.1529 9.93393V13.1142C75.1529 13.6697 75.2168 14.2252 75.3831 14.4736H73.5423C73.4783 14.2844 73.4272 14.0834 73.4144 13.8826C72.8392 14.4381 71.9956 14.6391 71.1901 14.6391C69.9375 14.6391 68.9401 14.0599 68.9401 12.8067C68.9401 11.4235 70.0653 11.0925 71.1901 10.9506C72.3022 10.7969 73.3378 10.8324 73.3378 10.1467C73.3378 9.42565 72.8009 9.31921 72.1616 9.31921C71.4714 9.31921 71.0242 9.57931 70.96 10.2414H69.1447ZM76.0274 8.36604H77.6413V9.2397H77.6774C78.1077 8.53594 78.8491 8.19614 79.5663 8.19614C81.3717 8.19614 81.826 9.22752 81.826 10.7807V14.6391H80.1283V11.0962C80.1283 10.0648 79.8293 9.55515 79.0403 9.55515C78.1197 9.55515 77.7251 10.077 77.7251 11.3509V14.6391H76.0274L76.0274 8.36604ZM87.2177 11.4966C87.2177 10.4544 86.8535 9.52377 85.6981 9.52377C84.6933 9.52377 84.2538 10.3924 84.2538 11.3476C84.2538 12.2658 84.6055 13.2708 85.6981 13.2708C86.7156 13.2708 87.2177 12.4146 87.2177 11.4966ZM88.9133 14.375C88.9133 15.4296 88.5363 17.2163 85.5473 17.2163C84.2664 17.2163 82.7719 16.6206 82.6839 15.1566H84.4547C84.6179 15.8142 85.1581 16.0376 85.786 16.0376C86.7783 16.0376 87.2303 15.3676 87.2177 14.4494V13.6058H87.1926C86.8035 14.2758 86.0246 14.5985 85.2459 14.5985C83.2993 14.5985 82.4703 13.1343 82.4703 11.3725C82.4703 9.70984 83.4374 8.1962 85.2586 8.1962C86.1126 8.1962 86.7656 8.48162 87.1926 9.22611H87.2177V8.36984H88.9133V14.375ZM94.217 10.7615C94.0546 9.91022 93.6673 9.46115 92.8053 9.46115C91.681 9.46115 91.3564 10.2886 91.3312 10.7615H94.217ZM91.3312 11.8254C91.3813 12.8894 91.9309 13.3741 92.9178 13.3741C93.6298 13.3741 94.2045 12.9602 94.3167 12.5819H95.8783C95.3786 14.0244 94.3167 14.6391 92.8553 14.6391C90.8193 14.6391 89.5576 13.3151 89.5576 11.4234C89.5576 9.59116 90.8942 8.19614 92.8554 8.19614C95.0538 8.19614 96.1156 9.94566 95.9906 11.8255L91.3312 11.8254ZM59.642 23.4193H59.6671L61.6526 17.2163H64.43V26.2364H62.5827V19.8439H62.5575L60.3582 26.2364H58.8376L56.6383 19.907H56.6131V26.2364H54.7656V17.2163H57.5432L59.642 23.4193ZM68.9341 24.9715C70.1022 24.9715 70.4515 23.9902 70.4515 23.0208C70.4515 22.0395 70.1022 21.0584 68.9341 21.0584C67.7779 21.0584 67.4287 22.0395 67.4287 23.0208C67.4287 23.9902 67.7779 24.9715 68.9341 24.9715ZM68.9341 19.7934C70.897 19.7934 72.1616 21.0703 72.1616 23.0208C72.1616 24.9595 70.897 26.2364 68.9341 26.2364C66.9833 26.2364 65.7186 24.9595 65.7186 23.0208C65.7186 21.0703 66.9833 19.7934 68.9341 19.7934ZM72.8059 19.9633H74.4198V20.837H74.4559C74.8862 20.1334 75.6276 19.7934 76.3448 19.7934C78.1502 19.7934 78.6045 20.8248 78.6045 22.378V26.2364H76.9066V22.6934C76.9066 21.6621 76.6079 21.1526 75.8189 21.1526C74.8981 21.1526 74.5037 21.6743 74.5037 22.9482V26.2364H72.8059L72.8059 19.9633ZM83.9082 22.3588C83.7459 21.5076 83.3586 21.0584 82.4966 21.0584C81.3725 21.0584 81.0478 21.8861 81.0227 22.3588H83.9082ZM81.0227 23.4228C81.0726 24.4866 81.6222 24.9715 82.6091 24.9715C83.321 24.9715 83.8957 24.5576 84.0082 24.1793H85.5697C85.07 25.6215 84.0082 26.2364 82.5467 26.2364C80.5106 26.2364 79.2488 24.9122 79.2488 23.0207C79.2488 21.1886 80.5855 19.7934 82.5467 19.7934C84.7451 19.7934 85.8069 21.5431 85.6819 23.4228L81.0227 23.4228ZM89.5139 26.7672C89.1377 27.7616 88.5432 28.1693 87.3541 28.1693C87.0022 28.1693 86.6502 28.1452 86.2984 28.1092V26.7073C86.626 26.7313 86.9658 26.7793 87.3054 26.7672C87.9 26.7073 88.0941 26.0963 87.9 25.605L85.6918 19.7934H87.5361L88.9558 24.0353H88.98L90.3513 19.7934H92.1347L89.5139 26.7672Z" fill="black"/>
</g>
<defs>
<clipPath id="clip0_2376_4358">
<rect width="96" height="25.7401" fill="white" transform="translate(0 3.07355)"/>
</clipPath>
</defs>
</svg>
