<svg width="94" height="32" viewBox="0 0 94 32" fill="none" xmlns="http://www.w3.org/2000/svg">
<g clip-path="url(#clip0_2376_4267)">
<g clip-path="url(#clip1_2376_4267)">
<path d="M32 16C32 19.1645 31.0617 22.2579 29.3036 24.8892C27.5455 27.5203 25.0466 29.5711 22.1229 30.7821C19.1993 31.993 15.9823 32.31 12.8786 31.6925C9.77487 31.0752 6.92395 29.5514 4.6863 27.3138C2.44866 25.0761 0.924808 22.2252 0.307444 19.1215C-0.309919 16.0178 0.00692762 12.8007 1.21793 9.87706C2.42893 6.95344 4.4797 4.45459 7.11088 2.69648C9.74209 0.938381 12.8355 0 16 0C20.2435 0 24.3132 1.68572 27.3138 4.6863C30.3143 7.68688 32 11.7565 32 16ZM18.6761 8.48V16.5239L13.076 8.48H8.48001V23.5401H13.32V15.472L18.92 23.52H23.5321V8.48H18.6761Z" fill="#00DE5A"/>
<path d="M90.0272 7.64421L85.5629 17.8168L80.5128 7.64421H76.6299L83.7819 21.7574L80.8336 28.3705H84.6043L93.7978 7.66427L90.0272 7.64421ZM74.1484 23.3745H70.4581V21.9058C69.1157 23.0825 67.3852 23.7201 65.6006 23.6956C61.1882 23.6956 57.7346 20.084 57.7346 15.5094C57.7346 10.9347 61.1842 7.32318 65.6006 7.32318C67.3846 7.2975 69.1151 7.93365 70.4581 9.10889V7.64421H74.1484V23.3745ZM70.8913 15.5294C70.8913 12.5639 68.8216 10.3128 66.0779 10.3128C63.3342 10.3128 61.2644 12.5639 61.2644 15.5294C61.2644 18.4949 63.3302 20.7461 66.0779 20.7461C68.8256 20.7461 70.8913 18.4748 70.8913 15.5294ZM39.4847 28.3705H43.3354V22.0383C44.653 23.1343 46.3192 23.7222 48.0326 23.6956C52.4449 23.6956 55.9025 20.084 55.9025 15.5094C55.9025 10.9347 52.4489 7.32318 48.0326 7.32318C46.2437 7.29104 44.5073 7.92782 43.163 9.10889V7.64421H39.4727L39.4847 28.3705ZM47.5753 10.3128C50.3189 10.3128 52.3887 12.5639 52.3887 15.5294C52.3887 18.4949 50.3189 20.7461 47.5753 20.7461C44.8316 20.7461 42.7618 18.4949 42.7618 15.5294C42.7618 12.5639 44.8076 10.3128 47.5753 10.3128Z" fill="#00DE5A"/>
</g>
</g>
<defs>
<clipPath id="clip0_2376_4267">
<rect width="94" height="32" fill="white"/>
</clipPath>
<clipPath id="clip1_2376_4267">
<rect width="93.797" height="32" fill="white"/>
</clipPath>
</defs>
</svg>
