<svg width="96" height="32" viewBox="0 0 96 32" fill="none" xmlns="http://www.w3.org/2000/svg">
<path d="M3.03516 9.05286C3.03516 8.9113 3.07297 8.79887 3.14659 8.7142C3.22155 8.63088 3.33232 8.58838 3.4809 8.58838H9.93143C10.3949 8.58838 10.8323 8.65196 11.2432 8.78013C11.6532 8.90829 12.0303 9.08498 12.3736 9.3102C12.716 9.53575 13.0265 9.80479 13.3029 10.119C13.578 10.4309 13.8119 10.7692 14.0037 11.1333C14.1951 11.4961 14.342 11.8786 14.4431 12.2788C14.5441 12.6784 14.5943 13.0846 14.5943 13.4949C14.5943 14.1012 14.4842 14.6929 14.2667 15.2722C14.0475 15.8507 13.7356 16.3661 13.3327 16.8165C12.9288 17.2669 12.4439 17.6327 11.8794 17.9111C11.3128 18.1912 10.6874 18.3348 10.001 18.3408H6.94275V23.1462C6.94275 23.4354 6.78815 23.5789 6.47861 23.5789H3.4809C3.34537 23.5789 3.23795 23.5438 3.1573 23.4745C3.07632 23.4032 3.03516 23.2935 3.03516 23.1462V9.05286ZM10.6375 13.4741C10.6375 13.272 10.6024 13.0702 10.5314 12.8684C10.4602 12.667 10.3588 12.4863 10.2239 12.3287C10.0894 12.1707 9.92574 12.0412 9.73433 11.9398C9.54191 11.8394 9.32506 11.7882 9.08312 11.7882H6.94309V15.16H9.08312C9.32506 15.16 9.54325 15.1112 9.73901 15.0138C9.93411 14.9161 10.0981 14.7906 10.2286 14.636C10.3598 14.4804 10.4602 14.3027 10.5318 14.1009C10.6024 13.8985 10.6375 13.6903 10.6375 13.4741Z" fill="#941F7F"/>
<path d="M20.5701 8.98219C20.5761 8.94237 20.5979 8.89886 20.6353 8.85101C20.6722 8.80382 20.7187 8.76032 20.7719 8.71983C20.8251 8.67867 20.8833 8.64788 20.9442 8.62413C21.0038 8.6007 21.0613 8.58899 21.1145 8.58899H23.7C23.8138 8.58899 23.9111 8.62412 23.9928 8.69473C24.0731 8.76568 24.133 8.82759 24.1735 8.88213L24.4255 9.45704L29.7258 23.1258C29.7801 23.2606 29.769 23.3691 29.6951 23.4537C29.6221 23.5374 29.4939 23.5799 29.3119 23.5799H26.4156C26.2596 23.5799 26.1405 23.5514 26.0572 23.4945C25.9725 23.436 25.9063 23.3409 25.8601 23.2061C25.7252 22.8634 25.594 22.5217 25.4665 22.1817C25.3377 21.8418 25.2095 21.5014 25.082 21.1571H19.7214C19.5939 21.5014 19.4644 21.8421 19.3333 22.1817C19.2021 22.5214 19.0726 22.8631 18.9444 23.2061C18.8564 23.4554 18.6864 23.5799 18.4301 23.5799H15.4518C15.3236 23.5799 15.2185 23.5457 15.1339 23.4791C15.0495 23.4116 15.0338 23.3105 15.089 23.1753L20.5701 8.98219ZM22.4076 13.3031C22.2794 13.6464 22.1496 14.0165 22.0184 14.4131C21.8872 14.8106 21.7577 15.2109 21.6296 15.6141C21.5027 16.0187 21.3729 16.4169 21.2417 16.8108C21.1105 17.205 20.981 17.5731 20.8529 17.9164H23.952L22.4076 13.3031Z" fill="#941F7F"/>
<path d="M34.2041 14.121L36.6419 8.90157C36.6818 8.82126 36.7159 8.76236 36.7423 8.72555C36.7701 8.68807 36.7966 8.66131 36.8233 8.64391C36.8501 8.62751 36.8792 8.61747 36.9087 8.61412C36.9394 8.61111 36.9746 8.60341 37.0151 8.58936H40.9013C40.9494 8.58936 40.9879 8.60508 41.0184 8.63487C41.0482 8.66498 41.0632 8.70079 41.0632 8.74061C41.0632 8.81457 41.016 8.89957 40.923 8.9926L36.1376 17.4623V23.1064C36.1376 23.4216 35.983 23.5799 35.6742 23.5799H32.6527C32.5185 23.5799 32.4158 23.5374 32.3408 23.4538C32.2672 23.3688 32.2301 23.2536 32.2301 23.1064V17.4429L27.4554 8.9926C27.3681 8.90559 27.3242 8.82159 27.3242 8.74061C27.3242 8.70079 27.3383 8.66498 27.3647 8.63487C27.3918 8.60508 27.4283 8.58936 27.4758 8.58936H31.3627C31.4092 8.60341 31.4463 8.61111 31.4728 8.61412C31.5005 8.61747 31.527 8.62751 31.5544 8.64391C31.5812 8.66131 31.6076 8.68807 31.6344 8.72555C31.6622 8.76236 31.699 8.8216 31.7458 8.90157L34.2041 14.121Z" fill="#941F7F"/>
<path d="M42.4766 9.03306C42.4766 8.91192 42.5134 8.80751 42.5873 8.7205C42.6609 8.63215 42.7727 8.58932 42.9203 8.58932H46.2222C46.3152 8.58932 46.4136 8.61275 46.5147 8.65893C46.6157 8.70712 46.7027 8.78776 46.777 8.90188C47.6317 10.2813 48.4793 11.6402 49.3206 12.9798C50.1623 14.3194 51.0139 15.679 51.8746 17.0584V8.97215C51.9014 8.85134 51.9543 8.75597 52.0362 8.68938C52.1169 8.62245 52.2119 8.58899 52.318 8.58899H55.1949C55.3378 8.58899 55.4556 8.62647 55.5496 8.70444C55.6437 8.78208 55.6909 8.8915 55.6909 9.03272V23.1857C55.6909 23.3205 55.6507 23.4189 55.5697 23.4835C55.4884 23.5478 55.378 23.5802 55.2367 23.5802H52.0162C51.9285 23.5802 51.8519 23.5494 51.7846 23.4882C51.717 23.4283 51.6464 23.348 51.5728 23.2466C50.6766 21.7658 49.7925 20.3021 48.9171 18.8551C48.043 17.4084 47.1545 15.9444 46.2526 14.4636V23.1351C46.2526 23.2831 46.2189 23.3945 46.1509 23.4688C46.084 23.5427 45.9625 23.5802 45.7882 23.5802H42.921C42.7664 23.5802 42.6539 23.538 42.583 23.4527C42.5124 23.3691 42.4772 23.2663 42.4772 23.1459V9.03306H42.4766Z" fill="#941F7F"/>
<path d="M79.3846 23.3681C79.317 23.2537 79.2531 23.1355 79.1929 23.0151C79.1336 22.8929 79.0784 22.7718 79.0319 22.6513C78.1625 20.3627 77.2988 18.0952 76.4371 15.8471C75.5757 13.5989 74.711 11.3314 73.8416 9.04315C73.8416 9.00902 73.8369 8.97957 73.8279 8.95213C73.8172 8.92502 73.8125 8.89859 73.8125 8.87182C73.8125 8.68342 73.937 8.58905 74.186 8.58905H77.4367C77.693 8.58905 77.8663 8.71721 77.9614 8.97221L81.0498 18.1685L83.9069 8.97221C84.001 8.71721 84.186 8.58905 84.4621 8.58905H87.7443C87.8979 8.58905 88.0083 8.61749 88.0712 8.67438C88.1355 8.73127 88.1679 8.80723 88.1679 8.9016C88.1679 8.95481 88.1639 8.99229 88.1572 9.01304V9.04282L86.3605 14.1906L87.7138 18.1578L90.9849 8.97154C91.0779 8.71654 91.2627 8.58838 91.5387 8.58838H94.7195C94.8738 8.58838 94.9819 8.61682 95.0468 8.67371C95.111 8.7306 95.1432 8.80656 95.1432 8.90093C95.1432 8.95414 95.1402 8.99162 95.1325 9.01237V9.04215C94.6753 10.2261 94.2072 11.4074 93.7303 12.585C93.2514 13.7626 92.7722 14.9402 92.2927 16.1175C91.8095 17.2957 91.3323 18.476 90.8581 19.6556C90.3832 20.8372 89.9204 22.0172 89.4697 23.1938C89.4436 23.2691 89.3837 23.3504 89.2886 23.4424C89.1936 23.5331 89.0798 23.5789 88.9449 23.5789H88.9148H86.4713C86.3234 23.5789 86.2106 23.5498 86.1336 23.4923C86.0563 23.4354 86.0004 23.3594 85.9666 23.265L84.3721 19.0646C84.1435 19.6784 83.9183 20.2784 83.6958 20.8677C83.4732 21.4566 83.2514 22.0577 83.0298 22.669C82.996 22.7641 82.9569 22.8621 82.9131 22.9665C82.8702 23.0716 82.8173 23.17 82.7564 23.2597C82.6959 23.3504 82.6269 23.427 82.5493 23.4869C82.4727 23.5485 82.3823 23.5789 82.2823 23.5789H82.2518H79.8089C79.5941 23.5803 79.4519 23.5093 79.3846 23.3681Z" fill="#941F7F"/>
<mask id="mask0_2376_4274" style="mask-type:luminance" maskUnits="userSpaceOnUse" x="57" y="7" width="18" height="18">
<path d="M60.4659 9.24325C56.6527 12.2149 55.969 17.7354 58.9406 21.5477C60.6128 23.694 63.1353 24.9255 65.8606 24.9255C67.8277 24.9255 69.6896 24.285 71.2447 23.0743C73.0882 21.6367 74.2631 19.5632 74.5513 17.2371C74.8414 14.9101 74.2076 12.6134 72.77 10.7702C72.3989 10.2934 71.9792 9.85498 71.5224 9.46646C71.425 9.38414 71.3016 9.33829 71.1757 9.33829C71.0061 9.33829 70.8444 9.42162 70.742 9.5615L65.8951 16.2185L63.467 13.2489C63.3682 13.1288 63.2294 13.0612 63.0841 13.0612C62.9282 13.0612 62.7843 13.1375 62.6866 13.2703L61.6545 14.6872C61.4922 14.9111 61.5013 15.242 61.676 15.4562L65.6194 20.276C65.7161 20.3948 65.8563 20.4654 66.0015 20.4654C66.1571 20.4654 66.302 20.3871 66.4004 20.2526L71.4662 13.2954C72.8292 15.9602 72.1221 19.2584 69.7261 21.1257C68.61 21.9964 67.2728 22.4569 65.8603 22.4569C63.9013 22.4569 62.0892 21.5731 60.8865 20.0294C59.8532 18.7045 59.4007 17.0541 59.6072 15.3822C59.815 13.712 60.6583 12.2219 61.9832 11.1892C63.1002 10.3188 64.4367 9.85933 65.8499 9.85933C66.7136 9.85933 67.5486 10.0293 68.334 10.3636C68.589 10.4731 68.9156 10.3824 69.0762 10.1625L69.8937 9.03913C69.9864 8.91163 70.0189 8.75635 69.9814 8.61011C69.9463 8.46488 69.8455 8.34474 69.7077 8.27614C68.5053 7.68885 67.2062 7.39001 65.8503 7.39001C63.8829 7.39068 62.022 8.03185 60.4659 9.24325Z" fill="white"/>
</mask>
<g mask="url(#mask0_2376_4274)">
<path d="M83.6071 16.2138L65.3444 34.3607L47.2012 16.1021L65.4642 -2.04517L83.6071 16.2138Z" fill="url(#paint0_linear_2376_4274)"/>
</g>
<defs>
<linearGradient id="paint0_linear_2376_4274" x1="74.3945" y1="7.21048" x2="59.2143" y2="22.2941" gradientUnits="userSpaceOnUse">
<stop stop-color="#E83762"/>
<stop offset="1" stop-color="#9A1F81"/>
</linearGradient>
</defs>
</svg>
