<svg width="96" height="32" viewBox="0 0 96 32" fill="none" xmlns="http://www.w3.org/2000/svg">
<g clip-path="url(#clip0_2376_4286)">
<path d="M30.6975 8.08966C30.4999 8.08966 30.3321 8.23309 30.3012 8.4284L28.0143 22.9319C28.0059 22.9848 28.0092 23.039 28.0238 23.0906C28.0384 23.1422 28.0641 23.19 28.0989 23.2308C28.1338 23.2715 28.177 23.3042 28.2257 23.3267C28.2744 23.3491 28.3274 23.3607 28.3811 23.3607H31.0932C31.2905 23.3607 31.4586 23.217 31.4895 23.022L32.1613 18.7629C32.1919 18.5679 32.36 18.4242 32.5576 18.4242H35.0235C37.9046 18.4242 40.3503 16.322 40.7971 13.4735C41.2475 10.6009 39.0033 8.0959 35.8226 8.08966H30.6975ZM33.334 11.3274H35.3069C36.9312 11.3274 37.4601 12.2858 37.2929 13.3457C37.1257 14.4078 36.3042 15.1902 34.7329 15.1902H32.7249L33.334 11.3274ZM46.3133 12.3133C45.6284 12.3158 44.8404 12.4561 43.9557 12.8246C41.9264 13.6705 40.9519 15.4186 40.538 16.6931C40.538 16.6931 39.2207 20.5814 42.1968 22.7176C42.1968 22.7176 44.9569 24.7741 48.064 22.5908L48.0104 22.9319C48.0021 22.9848 48.0053 23.0389 48.0199 23.0904C48.0345 23.142 48.0601 23.1898 48.0949 23.2305C48.1296 23.2713 48.1728 23.304 48.2215 23.3265C48.2701 23.349 48.323 23.3606 48.3766 23.3607H50.9513C51.1489 23.3607 51.3167 23.217 51.3476 23.022L52.9138 13.09C52.9222 13.037 52.919 12.9828 52.9044 12.9312C52.8899 12.8796 52.8643 12.8317 52.8295 12.7909C52.7947 12.7501 52.7515 12.7173 52.7028 12.6948C52.6541 12.6723 52.6012 12.6606 52.5475 12.6605H49.9728C49.7752 12.6605 49.6071 12.8042 49.5765 12.9993L49.4923 13.5339C49.4923 13.5339 48.3681 12.3056 46.3133 12.3133ZM46.3975 15.4504C46.6931 15.4504 46.9636 15.4912 47.2062 15.5691C48.3171 15.9257 48.947 16.993 48.7647 18.1498C48.5399 19.5742 47.3718 20.623 45.8736 20.623C45.5783 20.623 45.3078 20.5825 45.0649 20.5045C43.9543 20.1479 43.3205 19.0807 43.5027 17.9239C43.7275 16.4995 44.8994 15.4504 46.3975 15.4504Z" fill="#003087"/>
<path d="M67.7756 8.0896C67.5781 8.0896 67.4103 8.23303 67.3794 8.42834L65.0924 22.9318C65.0841 22.9848 65.0873 23.0389 65.1019 23.0905C65.1166 23.1421 65.1422 23.1899 65.177 23.2307C65.2119 23.2714 65.2552 23.3042 65.3039 23.3266C65.3526 23.349 65.4056 23.3607 65.4592 23.3607H68.1714C68.3687 23.3607 68.5368 23.217 68.5677 23.0219L69.2395 18.7629C69.2701 18.5679 69.4382 18.4241 69.6357 18.4241H72.1016C74.9827 18.4241 77.4282 16.322 77.8746 13.4734C78.3253 10.6008 76.0814 8.09584 72.9007 8.0896H67.7756ZM70.4122 11.3273H72.3851C74.0093 11.3273 74.5383 12.2857 74.371 13.3456C74.2038 14.4077 73.3826 15.1901 71.8111 15.1901H69.803L70.4122 11.3273ZM83.3911 12.3132C82.7063 12.3158 81.9182 12.4561 81.0336 12.8246C79.0042 13.6704 78.0297 15.4186 77.6158 16.693C77.6158 16.693 76.2991 20.5813 79.2752 22.7175C79.2752 22.7175 82.0348 24.774 85.1421 22.5908L85.0885 22.9318C85.0802 22.9848 85.0835 23.0389 85.0981 23.0905C85.1127 23.1421 85.1383 23.1899 85.1732 23.2307C85.208 23.2714 85.2513 23.3042 85.3 23.3266C85.3487 23.349 85.4017 23.3607 85.4553 23.3607H88.0297C88.2273 23.3607 88.3951 23.217 88.426 23.0219L89.9927 13.0899C90.0011 13.0369 89.9979 12.9827 89.9834 12.931C89.9688 12.8793 89.9432 12.8314 89.9083 12.7906C89.8735 12.7498 89.8302 12.717 89.7814 12.6946C89.7327 12.6721 89.6796 12.6605 89.6259 12.6605H87.0512C86.8536 12.6605 86.6855 12.8042 86.6549 12.9992L86.5707 13.5338C86.5707 13.5338 85.446 12.3056 83.3911 12.3132ZM83.4753 15.4503C83.771 15.4503 84.0414 15.4911 84.2841 15.5691C85.3949 15.9257 86.0248 16.9929 85.8425 18.1497C85.6177 19.5742 84.4496 20.623 82.9515 20.623C82.6561 20.623 82.3857 20.5824 82.1428 20.5045C81.0321 20.1479 80.3983 19.0806 80.5806 17.9238C80.8054 16.4994 81.9772 15.4503 83.4753 15.4503Z" fill="#0070E0"/>
<path d="M54.1355 12.6605C53.9314 12.6605 53.7862 12.8598 53.8486 13.0539L56.6713 21.8133L54.119 25.9411C53.9951 26.1415 54.1391 26.4003 54.3747 26.4003H57.3913C57.4776 26.4002 57.5624 26.3779 57.6375 26.3355C57.7126 26.2931 57.7756 26.232 57.8202 26.1582L65.7036 13.1169C65.8247 12.9165 65.6801 12.6602 65.446 12.6602H62.4296C62.3425 12.6603 62.2569 12.683 62.1813 12.7262C62.1056 12.7694 62.0425 12.8316 61.9982 12.9065L58.8951 18.1455L57.3199 12.9454C57.2686 12.7762 57.1124 12.6602 56.9358 12.6602L54.1355 12.6605Z" fill="#003087"/>
<path d="M92.9169 8.0896C92.7196 8.0896 92.5515 8.23332 92.5206 8.42834L90.2331 22.9312C90.2247 22.9842 90.2279 23.0385 90.2425 23.0901C90.257 23.1418 90.2826 23.1897 90.3175 23.2305C90.3524 23.2713 90.3957 23.3041 90.4444 23.3266C90.4932 23.349 90.5462 23.3607 90.5999 23.3607H93.3121C93.5094 23.3607 93.6775 23.217 93.7084 23.0219L95.9954 8.51848C96.0037 8.46555 96.0004 8.41145 95.9858 8.35989C95.9713 8.30833 95.9457 8.26054 95.9109 8.2198C95.8761 8.17905 95.8329 8.14632 95.7843 8.12384C95.7356 8.10137 95.6827 8.08969 95.6291 8.0896H92.9169Z" fill="#0070E0"/>
<path d="M8.0866 8.0896C7.91189 8.08974 7.74296 8.15219 7.61016 8.26571C7.47736 8.37924 7.38938 8.5364 7.36206 8.70897L6.1582 16.3444C6.21433 15.9878 6.5216 15.725 6.88273 15.725H10.4104C13.9608 15.725 16.9735 13.135 17.524 9.62513C17.5649 9.36309 17.5882 9.09858 17.5934 8.83341C16.6912 8.36031 15.6313 8.0896 14.4699 8.0896H8.0866Z" fill="#001C64"/>
<path d="M17.5945 8.83374C17.5892 9.09891 17.566 9.36342 17.525 9.62546C16.9745 13.1353 13.9616 15.7253 10.4115 15.7253H6.88377C6.52292 15.7253 6.21537 15.9878 6.15925 16.3447L5.05231 23.361L4.35896 27.7626C4.34543 27.8477 4.3505 27.9346 4.37384 28.0175C4.39718 28.1004 4.43824 28.1772 4.49415 28.2427C4.55007 28.3082 4.61953 28.3608 4.69774 28.3968C4.77595 28.4329 4.86104 28.4515 4.94715 28.4515H8.77619C8.9509 28.4513 9.11983 28.3889 9.25263 28.2753C9.38543 28.1618 9.47339 28.0046 9.50071 27.8321L10.5093 21.4351C10.5366 21.2625 10.6247 21.1052 10.7576 20.9917C10.8905 20.8782 11.0596 20.8158 11.2344 20.8158H13.4888C17.0392 20.8158 20.0518 18.2258 20.6023 14.7159C20.9932 12.2248 19.7386 9.95796 17.5945 8.83374Z" fill="#0070E0"/>
<path d="M3.73665 3.00024C3.3758 3.00024 3.06825 3.26273 3.01213 3.61905L0.00739508 22.6724C-0.0495812 23.0341 0.229922 23.3612 0.596158 23.3612H5.05193L6.1583 16.3449L7.36216 8.7095C7.38948 8.53693 7.47745 8.37977 7.61026 8.26624C7.74306 8.15272 7.91199 8.09027 8.0867 8.09013H14.47C15.6317 8.09013 16.6913 8.36112 17.5935 8.83394C17.6553 5.63845 15.0185 3.00024 11.3933 3.00024H3.73665Z" fill="#003087"/>
</g>
<defs>
<clipPath id="clip0_2376_4286">
<rect width="96" height="25.4509" fill="white" transform="translate(0 3)"/>
</clipPath>
</defs>
</svg>
