<svg width="96" height="32" viewBox="0 0 96 32" fill="none" xmlns="http://www.w3.org/2000/svg">
<g clip-path="url(#clip0_2376_4038)">
<g clip-path="url(#clip1_2376_4038)">
<path d="M62.4658 -9.15527e-05C55.6562 -9.15527e-05 49.5709 3.52943 49.5709 10.0505C49.5709 17.5289 60.3635 18.0455 60.3635 21.8024C60.3635 23.3843 58.5506 24.8003 55.4543 24.8003C51.0601 24.8003 47.7759 22.8217 47.7759 22.8217L46.3706 29.4022C46.3706 29.4022 50.154 31.0735 55.177 31.0735C62.622 31.0735 68.4804 27.3707 68.4804 20.7381C68.4804 12.8358 57.6428 12.3347 57.6428 8.84757C57.6428 7.60838 59.131 6.25061 62.2184 6.25061C65.702 6.25061 68.5441 7.68962 68.5441 7.68962L69.9194 1.33399C69.9194 1.33399 66.8269 -9.15527e-05 62.4658 -9.15527e-05ZM0.164887 0.479579L0 1.43892C0 1.43892 2.86479 1.96322 5.445 3.00909C8.76724 4.20839 9.0039 4.90656 9.56342 7.07504L15.6605 30.5789H23.8336L36.4249 0.479579H28.2705L20.1799 20.9442L16.8784 3.59743C16.5756 1.6121 15.042 0.479579 13.1647 0.479579H0.164887ZM39.7039 0.479579L33.3071 30.5789H41.083L47.4573 0.479579H39.7039ZM83.0728 0.479579C81.1978 0.479579 80.2043 1.48345 79.4753 3.23768L68.0832 30.5789H76.2375L77.8152 26.022H87.7496L88.709 30.5789H95.904L89.6271 0.479579H83.0728ZM84.1334 8.61148L86.5504 19.9062H80.0749L84.1334 8.61148Z" fill="#1434CB"/>
</g>
</g>
<defs>
<clipPath id="clip0_2376_4038">
<rect width="96" height="32" fill="white"/>
</clipPath>
<clipPath id="clip1_2376_4038">
<rect width="96" height="31.1696" fill="white"/>
</clipPath>
</defs>
</svg>
