<svg width="64" height="32" viewBox="0 0 64 32" fill="none" xmlns="http://www.w3.org/2000/svg">
<g clip-path="url(#clip0_2376_4349)">
<g clip-path="url(#clip1_2376_4349)">
<path d="M31.942 10.3551C32.0344 9.64734 32.2218 9.04173 32.4804 8.46104C33.0453 7.19002 33.6682 5.93893 34.2251 4.66042C34.9667 2.95076 36.3709 2.23799 38.2422 2.16821C39.6068 2.11587 40.9397 2.24298 42.2198 2.72148C42.3913 2.78379 42.4943 2.79874 42.5787 2.60933C42.6711 2.41245 42.8163 2.23799 42.9298 2.05108C43.1172 1.73457 43.1462 1.42553 42.9482 1.08908C42.7001 0.670391 42.8004 0.30902 43.1858 0.112135C43.5632 -0.0797649 44.0568 0.0249079 44.2547 0.346403C44.4791 0.707774 44.3788 1.12397 43.9723 1.36323C43.7717 1.48285 43.6556 1.62242 43.6371 1.83924C43.6319 1.91899 43.6107 2.00372 43.5791 2.076C43.2861 2.74142 43.2148 3.34453 43.5606 4.07724C43.9697 4.94204 43.7005 5.89905 43.4181 6.78877C42.2224 10.567 40.1927 13.904 37.3897 16.8224C36.8354 17.3981 36.1782 17.8293 35.3125 17.8542C35.1409 17.8592 35.0644 17.9763 34.9694 18.071C33.7553 19.2748 32.4013 20.2791 30.6777 20.7651C29.6167 21.0642 28.5266 21.104 27.4339 21.1115C26.8401 21.1165 26.3412 20.8972 25.9612 20.461C24.557 18.8511 23.5725 17.0542 23.2056 14.9782C23.1634 14.7439 23.0816 14.5096 23.1449 14.223C23.9552 14.8411 24.7787 15.4019 25.7051 15.8081C26.9192 16.3414 28.1703 16.6629 29.5006 16.2567C30.0443 16.0897 30.6012 15.8978 30.8387 15.3246C30.9126 15.1476 31.0077 15.2374 31.0948 15.2947C31.4669 15.5489 31.8364 15.8081 32.2086 16.0673C32.718 16.4237 33.2485 16.7427 33.8476 16.957C34.8612 17.3184 35.7401 17.1115 36.4949 16.4037C37.4398 15.519 38.1683 14.4698 38.8783 13.4181C40.3036 11.3096 41.4438 9.06416 42.3306 6.70653C42.5339 6.16572 42.6078 5.59999 42.5999 5.02428C42.5867 4.30902 42.2277 3.82055 41.5467 3.52896C40.5517 3.10279 39.4959 3.02802 38.4243 3.08534C38.1947 3.0978 37.9677 3.12771 37.7381 3.15513C36.4052 3.30217 35.4577 3.9327 34.8585 5.0841C34.1406 6.45731 33.5072 7.86541 32.8236 9.25108C32.6177 9.65481 32.3933 10.0411 31.942 10.3551ZM29.3976 17.2511C29.3396 17.2461 29.2815 17.2336 29.2287 17.2411C28.9938 17.271 28.7299 17.5277 28.5504 17.1414C28.5346 17.1115 28.2231 17.1464 28.2865 17.3483C28.3577 17.58 28.2653 17.6997 28.0859 17.8243C27.843 17.9913 27.7295 18.2106 27.851 18.4972C27.9671 18.7763 28.231 18.7539 28.4712 18.7439C28.8302 18.7339 29.1838 18.6941 29.5428 18.6916C29.7038 18.6891 29.915 18.6791 29.9519 18.8959C29.9836 19.0853 29.8833 19.2374 29.717 19.347C29.5111 19.4816 29.263 19.5065 29.0281 19.5663C28.8882 19.6012 28.6692 19.5788 28.7404 19.8106C28.8117 20.0473 28.9885 19.8928 29.1179 19.8679C29.4161 19.8156 29.7196 19.5589 29.9889 19.9427C30.0364 20.0124 30.1763 19.9227 30.2528 19.8679C30.3557 19.7931 30.2845 19.7258 30.2132 19.676C29.973 19.4966 30.1024 19.3445 30.2634 19.21C30.4719 19.038 30.5458 18.8361 30.4402 18.5944C30.3241 18.3252 30.0812 18.2704 29.8015 18.2878C29.4293 18.3078 29.0572 18.3352 28.6876 18.3277C28.5557 18.3252 28.334 18.3651 28.3155 18.1483C28.3023 17.9888 28.3973 17.8592 28.5557 17.7944C28.6982 17.7346 28.8539 17.6972 28.9991 17.6399C29.1786 17.5651 29.3765 17.5028 29.3976 17.2511ZM1.12451 29.6498C1.12451 29.2162 1.11923 28.7825 1.12715 28.3464C1.13243 28.0498 1.16674 27.7458 1.58904 27.7433C2.01134 27.7408 2.05093 28.0324 2.05093 28.3389C2.05093 29.1265 2.05621 29.914 2.04566 30.7015C2.04302 30.9134 2.10108 31.0131 2.34127 31.043C3.37327 31.1751 4.37887 31.1202 5.32905 30.6816C6.41648 30.1807 7.07633 28.7103 5.69065 27.6436C4.90939 27.0405 3.98824 26.8934 3.03543 26.8212C2.24097 26.7614 1.45971 26.8436 0.691649 27.048C0.422432 27.1202 0.155853 27.1601 0.0423595 26.8536C-0.063216 26.5595 0.116262 26.3526 0.393398 26.243C1.00046 26.0037 1.64711 25.9614 2.2964 25.9489C3.47092 25.9215 4.62434 26.0536 5.70121 26.5221C6.68042 26.9483 7.39042 27.6012 7.56989 28.6529C7.76785 29.8118 7.05785 30.9707 5.81206 31.4966C4.55043 32.0299 3.22546 32.0872 1.88201 31.8729C1.34886 31.7857 1.1641 31.5464 1.12451 31.0305C1.12187 31.0031 1.12187 30.9757 1.12187 30.9483L1.12451 29.6498ZM12.1202 25.9514C12.5451 25.9489 12.8671 26.1557 13.1654 26.395C13.7672 26.871 14.2106 27.4716 14.6303 28.0897C15.232 28.9819 15.7388 29.9215 16.1796 30.8934C16.235 31.0156 16.2825 31.1476 16.3063 31.2772C16.3617 31.5938 16.2508 31.8505 15.913 31.9551C15.554 32.0648 15.3851 31.838 15.269 31.5688C14.7517 30.3776 14.1525 29.2237 13.3871 28.152C13.1469 27.8131 12.883 27.4941 12.5293 27.2473C12.2654 27.0604 12.012 27.0554 11.7401 27.2374C11.368 27.4841 11.1014 27.8205 10.8507 28.1695C10.1037 29.2037 9.5204 30.3177 9.01364 31.4691C8.88431 31.7657 8.75498 32.0772 8.31156 31.9526C7.96316 31.8554 7.81536 31.4741 7.98956 31.0704C8.6494 29.5626 9.4333 28.1196 10.563 26.8685C10.9747 26.4124 11.434 26.0037 12.1202 25.9514Z" fill="#E01A19"/>
<path d="M50.0003 31.1502C50.0135 31.524 49.8894 31.7583 49.5569 31.8231C49.219 31.8879 49.0686 31.6685 48.9551 31.4143C48.4008 30.1608 47.7805 28.9371 46.9412 27.828C46.8832 27.7508 46.8224 27.6735 46.7565 27.6037C45.991 26.7464 45.5925 26.7439 44.864 27.6212C43.9455 28.7327 43.3094 29.9938 42.7235 31.2798C42.6839 31.367 42.6522 31.4567 42.6073 31.5414C42.4991 31.7358 42.3434 31.8679 42.09 31.833C41.8525 31.8006 41.7073 31.6536 41.6334 31.4492C41.578 31.2922 41.5833 31.1277 41.6519 30.9707C42.346 29.4131 43.1484 27.9178 44.3335 26.6293C44.3625 26.5994 44.3889 26.567 44.4206 26.5396C45.413 25.5651 46.1758 25.5452 47.1656 26.5271C48.443 27.7981 49.2348 29.3533 49.9554 30.9433C49.9924 31.0206 49.9924 31.1203 50.0003 31.1502ZM54.6456 31.1028C54.6482 31.0953 54.6641 30.9707 54.7116 30.8611C55.3318 29.4679 56.0682 28.1346 57.0606 26.9408C57.3351 26.6094 57.6413 26.3003 58.0161 26.0636C58.5994 25.6972 59.0798 25.7047 59.6552 26.081C60.1355 26.395 60.505 26.8112 60.8429 27.2523C61.6875 28.3589 62.35 29.5601 62.9148 30.8112C62.9649 30.9209 63.0098 31.043 63.0204 31.1601C63.052 31.4791 62.928 31.7333 62.5822 31.8181C62.247 31.8978 62.0887 31.686 61.9725 31.4268C61.508 30.3576 60.9696 29.3234 60.3256 28.3414C60.0669 27.9477 59.7871 27.5689 59.4282 27.2523C58.9795 26.8561 58.6891 26.8461 58.2378 27.2474C57.6756 27.7483 57.2929 28.3713 56.9128 28.9969C56.4325 29.7869 56.0207 30.6069 55.6565 31.4492C55.5509 31.6935 55.3846 31.8879 55.0732 31.8231C54.7512 31.7533 54.6166 31.5265 54.6456 31.1028Z" fill="#8C8A8E"/>
<path d="M19.5744 31.9851C19.2234 31.9776 18.9463 31.8156 18.6902 31.6063C18.2152 31.2225 17.8562 30.7464 17.5236 30.253C16.8321 29.2187 16.2752 28.1197 15.8028 26.9832C15.7236 26.7938 15.6417 26.5994 15.7077 26.3901C15.7764 26.1732 15.8978 25.9913 16.1696 25.9639C16.4336 25.939 16.5576 26.0985 16.6394 26.3028C16.9271 27.0256 17.2491 27.7359 17.616 28.4262C17.9802 29.119 18.355 29.8069 18.8908 30.4C19.4055 30.9683 19.746 30.9807 20.2501 30.4125C21.0631 29.4978 21.5698 28.4162 22.0819 27.3396C22.2455 26.9932 22.3801 26.6343 22.5358 26.2854C22.6256 26.086 22.7602 25.924 23.0215 25.9664C23.2828 26.0063 23.4147 26.1757 23.4623 26.4075C23.4939 26.5545 23.4807 26.7041 23.4227 26.8486C22.8156 28.3165 22.1083 29.7396 21.0894 31.0031C20.8704 31.2723 20.6223 31.5215 20.3293 31.7234C20.105 31.8779 19.8621 31.9901 19.5744 31.9851Z" fill="#E01A19"/>
<path d="M29.4 26.6467C28.6029 26.6742 27.9088 26.734 27.2199 26.9084C26.9164 26.9857 26.4941 27.0929 26.3859 26.6692C26.2908 26.2854 26.6736 26.1857 26.985 26.1134C28.9381 25.6573 30.8543 25.6573 32.7098 26.5022C32.9711 26.6218 33.206 26.7788 33.4119 26.9682C33.9424 27.4567 33.9292 28.0474 33.3882 28.5334C33.0767 28.815 32.6834 28.9496 32.2823 29.0567C31.4984 29.2686 30.6986 29.3184 29.891 29.2935C29.6402 29.286 29.4185 29.2112 29.4212 28.9296C29.4238 28.6405 29.6508 28.5857 29.9015 28.5807C30.5191 28.5707 31.1368 28.5408 31.7465 28.4137C31.8732 28.3863 31.9972 28.3539 32.1186 28.3066C32.3931 28.1969 32.6359 28.0573 32.6518 27.7309C32.6702 27.4044 32.4116 27.2823 32.1688 27.1726C31.2608 26.7589 30.2922 26.6542 29.4 26.6467ZM36.046 27.8455C36.046 28.2268 36.0513 28.6056 36.0434 28.9869C36.0249 29.8243 36.4367 30.405 37.2654 30.714C38.1496 31.0405 39.0655 31.0206 39.984 30.9109C40.3166 30.871 40.6333 30.8661 40.6861 31.2374C40.7389 31.6013 40.4432 31.7109 40.1107 31.7508C39.2793 31.8555 38.4505 31.8704 37.6217 31.7508C35.9484 31.5091 34.956 30.4897 34.8952 28.8848C34.8636 28.0872 34.8847 27.2823 34.8926 26.4823C34.8979 26.0611 35.1302 25.8143 35.4838 25.8193C35.8349 25.8243 36.0407 26.0661 36.0487 26.5022C36.0539 26.9508 36.0487 27.3994 36.046 27.8455ZM53.0226 29.1016C53.0226 29.8094 53.0278 30.5147 53.0199 31.22C53.0173 31.6411 52.8484 31.8455 52.5079 31.8305C52.1014 31.8131 51.9721 31.5514 51.9721 31.22C51.9668 29.8218 51.9563 28.4212 51.9774 27.0231C51.9826 26.6941 51.8744 26.6044 51.5419 26.6218C51.0826 26.6467 50.6234 26.6318 50.1615 26.6218C49.887 26.6168 49.6019 26.5446 49.5808 26.248C49.5597 25.9639 49.8421 25.8891 50.0876 25.8418C50.2275 25.8143 50.3726 25.8094 50.5151 25.8094C51.8533 25.8069 53.1915 25.8069 54.5297 25.8094C54.659 25.8094 54.791 25.8044 54.915 25.8318C55.1526 25.8841 55.435 25.934 55.4112 26.2405C55.3901 26.5196 55.1394 26.6119 54.8807 26.6193C54.4478 26.6368 54.0176 26.6293 53.5848 26.6293C53.0173 26.6318 53.0173 26.6293 53.0173 27.1477C53.0226 27.7982 53.0226 28.4511 53.0226 29.1016Z" fill="#8C8A8E"/>
<path d="M25.6352 29.0243C25.6352 29.7969 25.6405 30.5695 25.6325 31.3396C25.6299 31.7832 25.4531 31.9926 25.1073 31.9826C24.7721 31.9726 24.5821 31.7458 24.5821 31.3222C24.5794 29.7645 24.5794 28.2044 24.5821 26.6468C24.5821 26.2181 24.7695 25.9863 25.0994 25.9764C25.4399 25.9664 25.6325 26.2057 25.6352 26.6642C25.6405 27.4518 25.6352 28.2368 25.6352 29.0243ZM37.5124 8.36641C37.9268 8.4013 38.3412 8.42871 38.7556 8.47606C38.8559 8.48852 39.0063 8.49102 39.0195 8.63806C39.0353 8.77014 38.9641 8.87482 38.8585 8.95457C38.6421 9.12154 38.3676 9.1365 38.1195 9.12404C37.3013 9.08665 36.4831 9.03183 35.6965 8.79257C34.8783 8.54584 34.6197 8.15706 34.7991 7.377C35.0314 6.35519 35.6992 5.54522 36.3273 4.7203C36.4356 4.57575 36.5807 4.6256 36.7127 4.69538C36.8737 4.78011 36.8579 4.89725 36.7919 5.04179C36.5543 5.5851 36.1637 6.04366 35.8681 6.55208C35.7097 6.82373 35.5329 7.0879 35.4431 7.39195C35.3138 7.84055 35.4616 8.12964 35.9288 8.27668C36.4461 8.43868 36.9819 8.39382 37.5124 8.36641Z" fill="#E01A19"/>
<path d="M28.8913 29.7645C28.8913 30.2804 28.886 30.7963 28.8939 31.3122C28.8965 31.6436 28.7383 31.8256 28.3823 31.8305C28.021 31.8355 27.8074 31.6835 27.8074 31.3221C27.8074 30.2754 27.8126 29.2312 27.8047 28.1844C27.8021 27.8306 27.9893 27.6337 28.3427 27.6337C28.6908 27.6337 28.8992 27.8156 28.8965 28.1745C28.8886 28.7028 28.8913 29.2337 28.8913 29.7645Z" fill="#8C8A8E"/>
<path d="M29.3972 17.2511C29.3787 17.5003 29.1808 17.5651 28.996 17.6349C28.8509 17.6897 28.6978 17.7296 28.5526 17.7894C28.3969 17.8542 28.2992 17.9838 28.3124 18.1433C28.3309 18.3626 28.5526 18.3202 28.6846 18.3227C29.0567 18.3302 29.4289 18.3053 29.7984 18.2828C30.0782 18.2679 30.3184 18.3227 30.4371 18.5894C30.5401 18.8311 30.4688 19.033 30.2603 19.205C30.0993 19.337 29.97 19.4891 30.2101 19.671C30.2788 19.7233 30.35 19.7906 30.2497 19.8629C30.1732 19.9152 30.0333 20.0075 29.9858 19.9377C29.7192 19.5539 29.4131 19.8081 29.1148 19.8629C28.9855 19.8878 28.8086 20.0399 28.7374 19.8056C28.6687 19.5738 28.8878 19.5962 29.0251 19.5613C29.26 19.5015 29.5054 19.4766 29.7139 19.342C29.8776 19.2324 29.9805 19.0828 29.9488 18.8909C29.9119 18.6741 29.6981 18.6841 29.5397 18.6866C29.1808 18.6891 28.8271 18.729 28.4682 18.7389C28.228 18.7439 27.964 18.7688 27.8479 18.4922C27.7265 18.2081 27.84 17.9863 28.0828 17.8193C28.2623 17.6972 28.3573 17.5751 28.2834 17.3433C28.2227 17.1414 28.5341 17.1065 28.5473 17.1364C28.7294 17.5202 28.9934 17.266 29.2257 17.2361C29.2811 17.2361 29.3365 17.2461 29.3972 17.2511Z" fill="white"/>
</g>
</g>
<defs>
<clipPath id="clip0_2376_4349">
<rect width="63.5433" height="32" fill="white"/>
</clipPath>
<clipPath id="clip1_2376_4349">
<rect width="63.0286" height="32" fill="white"/>
</clipPath>
</defs>
</svg>
