<svg width="70" height="32" viewBox="0 0 70 32" fill="none" xmlns="http://www.w3.org/2000/svg">
<g clip-path="url(#clip0_2376_4803)">
<g clip-path="url(#clip1_2376_4803)">
<path d="M66.5333 8.4533C66.5867 7.86663 66.2933 7.30663 65.8133 6.98663C65.3867 6.74663 64.9067 6.6133 64.4267 6.63997C63.2267 6.63997 62.2933 7.35997 62.2933 8.31997V15.4133H59.5467V8.47997C59.6 7.8933 59.3067 7.3333 58.8267 7.0133C58.4 6.7733 57.92 6.63997 57.44 6.66663C56.24 6.66663 55.3067 7.38664 55.3067 8.34664V15.44H52.5067V6.0533C52.48 5.67997 52.64 5.30663 52.9067 5.03997C53.6267 4.34663 54.8 4.2133 55.3067 4.15997V5.54664C56 4.66664 57.0667 4.18664 58.1867 4.2133C59.5467 4.15997 60.8533 4.74663 61.7067 5.8133C62.56 4.7733 63.84 4.18664 65.1733 4.2133C67.4933 4.2133 69.3333 5.6533 69.3333 7.51997V15.44H66.5067L66.5333 8.4533ZM38.8 9.94664C38.8 6.74664 41.3867 4.15997 44.56 4.15997C44.6133 4.15997 44.6667 4.15997 44.7467 4.15997C48.1333 4.15997 50.7467 6.6133 50.7467 9.86663C50.7467 13.12 48.08 15.6533 44.72 15.6533C41.3333 15.6266 38.8267 13.1733 38.8 9.94664ZM41.6533 9.86663C41.6 11.6266 42.96 13.12 44.7467 13.2C46.5333 13.2 47.8133 11.8133 47.8133 9.9733C47.8933 8.23997 46.5333 6.7733 44.8 6.6933C44.7733 6.6933 44.72 6.6933 44.6933 6.6933C43.04 6.66663 41.6533 7.99997 41.6533 9.6533C41.6533 9.70663 41.6533 9.78663 41.6533 9.86663ZM34.64 13.2533C35.7067 13.2266 36.7467 12.96 37.68 12.5066V14.0266C37.7333 14.3466 37.6 14.64 37.3333 14.8266C36.2133 15.4133 34.9333 15.68 33.68 15.6266C30.6133 15.6266 27.9733 13.5733 27.9733 9.83997C27.9733 6.71997 30.5067 4.15997 33.6267 4.15997C33.68 4.15997 33.7333 4.15997 33.7867 4.15997C35.44 4.10663 37.04 4.7733 38.1867 5.9733L36.4 7.8933C35.7067 7.19997 34.7467 6.82663 33.7867 6.8533C32.2133 6.8533 31.0667 8.15997 31.0667 9.83997C31.0667 12.24 32.6667 13.28 34.64 13.2533ZM23.44 2.3733C23.44 1.9733 23.5733 1.59997 23.8667 1.30663C24.5867 0.559968 25.9733 0.213301 26.2933 0.133301V15.3866H23.44V2.3733ZM14.08 10.88C14.4267 12.56 15.92 13.3066 17.6 13.3066C18.6667 13.28 19.7067 13.04 20.6667 12.56V14.0266C20.72 14.3466 20.5867 14.64 20.32 14.8266C19.1733 15.4133 17.92 15.68 16.64 15.6533C13.6 15.6533 11.04 13.6 11.0133 9.94664C11.0133 6.63997 13.0667 4.18663 16.4533 4.18663C20.1067 4.18663 21.84 6.79997 21.8667 10.1333C21.8667 10.4 21.8667 10.64 21.8133 10.9066L14.08 10.88ZM18.88 9.03997C18.7467 7.51997 17.8933 6.50663 16.4533 6.50663C15.1733 6.50663 14.1333 7.54664 14 9.03997H18.88ZM6.66667 13.2533C7.73333 13.2266 8.77334 12.96 9.70667 12.5066V14.0266C9.76 14.3466 9.6 14.64 9.36 14.8266C8.24 15.4133 6.98667 15.68 5.70667 15.6266C2.64 15.6266 0 13.5733 0 9.83997C0 6.6933 2.53333 4.15997 5.68 4.15997C5.73333 4.15997 5.78667 4.15997 5.84 4.15997C7.49333 4.10663 9.12 4.74663 10.2667 5.9733L8.48 7.8933C7.78667 7.19997 6.82667 6.82663 5.86667 6.8533C4.29333 6.8533 3.14667 8.15997 3.14667 9.83997C3.12 12.24 4.69333 13.28 6.66667 13.2533Z" fill="#009BDF"/>
<path d="M37.786 23.6C36.026 23.6 34.666 24.9333 34.666 26.64C34.666 28.3466 35.9994 29.6266 37.7594 29.6266C39.546 29.6266 40.9327 28.32 40.9327 26.5866C40.9327 24.88 39.546 23.6 37.786 23.6ZM37.786 28.3466C36.8793 28.3466 36.1594 27.5733 36.1594 26.6133C36.1594 25.6266 36.8527 24.9333 37.7594 24.9333C38.666 24.9333 39.386 25.68 39.386 26.6666C39.386 27.6266 38.7193 28.3466 37.786 28.3466Z" fill="black"/>
<path d="M48.5072 23.6C49.7339 23.6 50.6939 24.3734 50.6939 25.3334V29.4934H49.2005V25.8667C49.2005 25.4667 49.0405 25.2534 48.8272 25.0934C48.6405 24.9867 48.4005 24.9067 48.1072 24.9067C47.4939 24.9067 46.9872 25.28 46.9872 25.7867V29.4934H45.5472V25.8667C45.5472 25.4667 45.3872 25.2534 45.1739 25.0934C44.9872 24.9867 44.7472 24.9067 44.4539 24.9067C43.8405 24.9067 43.3339 25.28 43.3339 25.7867V29.4934H41.8672V24.56C41.8672 24.3467 41.9205 24.1867 42.0805 24.0267C42.4539 23.68 43.0672 23.6 43.3339 23.5734V24.2934C43.6272 23.8667 44.2672 23.6 44.8539 23.6C45.6539 23.6 46.3205 23.9467 46.7205 24.4267C47.0672 23.9467 47.7339 23.6 48.5072 23.6Z" fill="black"/>
<path d="M31.999 25.0133C32.559 25.0133 32.9323 25.1733 33.3857 25.5733L34.319 24.56C33.7323 23.9733 33.039 23.6 32.0257 23.6C30.239 23.6 28.959 24.96 28.959 26.5866C28.959 28.56 30.3457 29.6266 31.9457 29.6266C32.6923 29.6266 33.359 29.4933 33.8657 29.2C34.0257 29.0933 34.0523 28.96 34.0523 28.8V28C33.519 28.2666 32.959 28.4 32.4523 28.4C31.4123 28.4 30.5857 27.8666 30.5857 26.6133C30.5857 25.7066 31.199 25.0133 31.999 25.0133Z" fill="black"/>
<path d="M26.5859 22.6666V29.4933H28.0793V21.4933C27.9193 21.5466 27.1993 21.7066 26.7993 22.1066C26.6393 22.2666 26.5859 22.48 26.5859 22.6666Z" fill="black"/>
<path d="M17.333 25.0133C17.893 25.0133 18.2663 25.1733 18.7196 25.5733L19.653 24.56C19.0663 23.9466 18.373 23.6 17.3596 23.6C15.5463 23.6 14.293 24.96 14.293 26.5866C14.293 28.56 15.6796 29.6266 17.2796 29.6266C18.0263 29.6266 18.693 29.4933 19.1996 29.2C19.3596 29.0933 19.3863 28.96 19.3863 28.7733V27.9733C18.853 28.24 18.293 28.3733 17.7863 28.3733C16.7463 28.3733 15.9196 27.84 15.9196 26.5866C15.893 25.7066 16.5063 25.0133 17.333 25.0133Z" fill="black"/>
<path d="M22.8787 23.6C21.1187 23.6 20.0254 24.9066 20.0254 26.64C20.0521 28.56 21.3854 29.6533 22.9854 29.6533C23.7321 29.6533 24.4254 29.52 24.9054 29.2266C25.0654 29.12 25.0921 28.9866 25.0921 28.8266V28C24.5587 28.24 23.9987 28.4 23.4921 28.4C22.6121 28.4 21.8121 28.0266 21.6521 27.12H25.7054C25.7321 26.9333 25.7321 26.8533 25.7321 26.72C25.7321 24.96 24.8254 23.6 22.8787 23.6ZM21.6254 26.16C21.6787 25.36 22.2387 24.8266 22.9054 24.8266C23.6787 24.8266 24.1054 25.36 24.1854 26.16H21.6254Z" fill="black"/>
<path d="M55.9188 24.0267V21.52C55.9188 21.4133 56.3721 21.4133 56.6655 21.4133C56.9588 21.4133 57.4121 21.4133 57.4121 21.52V29.4667C57.4121 29.5733 56.9588 29.5733 56.6921 29.5733C56.4255 29.5733 56.0255 29.5733 56.0255 29.4667V28.9067C55.7855 29.2533 55.2255 29.7067 54.3188 29.7067C53.2521 29.7067 52.1055 29.0133 52.1055 27.4667V25.7067C52.1055 24.16 53.2521 23.4667 54.4788 23.4667C55.4388 23.4933 55.9188 24.0267 55.9188 24.0267ZM55.9188 26.96V26.08C55.9188 25.2533 55.4921 24.72 54.6388 24.72C53.9721 24.72 53.5455 25.0667 53.5455 25.8933V27.2267C53.5455 28.08 53.9988 28.4 54.6655 28.4C55.5188 28.4267 55.9188 27.8133 55.9188 26.96Z" fill="black"/>
<path d="M58.9062 29.4667V23.7334C58.9062 23.6267 59.3596 23.6267 59.6529 23.6267C59.9463 23.6267 60.3996 23.6267 60.3996 23.7334V29.4667C60.3996 29.5734 59.9463 29.5734 59.6529 29.5734C59.3596 29.5734 58.9062 29.5734 58.9062 29.4667Z" fill="black"/>
<path d="M65.1994 28.88C64.7727 29.36 64.2394 29.5466 63.5994 29.5466C62.426 29.5466 61.3594 28.8533 61.3594 27.3066V25.7333C61.3594 24.1866 62.506 23.4933 63.5727 23.4933C64.4794 23.4933 65.0127 23.8933 65.2794 24.2666V23.7333C65.2794 23.6266 65.706 23.6266 65.9727 23.6266C66.2394 23.6266 66.6927 23.6266 66.6927 23.7333V29.0666C66.6927 31.3066 65.0127 31.8666 63.866 31.8666C62.7727 31.8666 61.8927 31.4399 61.546 31.1733C61.4127 31.0666 62.0527 30.0533 62.186 30.1333C62.7727 30.48 63.2794 30.6933 63.8927 30.6933C64.746 30.6933 65.226 30.16 65.226 29.4666L65.1994 28.88ZM62.826 25.9733V27.0933C62.826 27.8933 63.2794 28.2666 63.946 28.2666C64.7994 28.2666 65.1994 27.68 65.1994 26.8533V26.2399C65.1994 25.4133 64.7994 24.7733 63.946 24.7733C63.2794 24.7733 62.826 25.1199 62.826 25.9733Z" fill="black"/>
<path d="M67.8652 29.4667V23.7334C67.8652 23.6267 68.3186 23.6267 68.6119 23.6267C68.8786 23.6267 69.3586 23.6267 69.3586 23.7334V29.4667C69.3586 29.5734 68.9052 29.5734 68.6119 29.5734C68.3186 29.5734 67.8652 29.5734 67.8652 29.4667Z" fill="black"/>
<path d="M0.240234 29.7067V21.9734H0.986901V25.8401L0.880235 26.9334L0.960235 28.0267V29.6801L0.240234 29.7067ZM3.0669 29.7601C2.5869 29.7601 2.16023 29.6534 1.7869 29.4401C1.41357 29.2267 1.09357 28.9067 0.880235 28.4801C0.666901 28.0534 0.560235 27.5734 0.560235 26.9601C0.560235 26.3734 0.666901 25.8667 0.906901 25.4401C1.12023 25.0401 1.44023 24.7201 1.81357 24.5067C2.1869 24.2934 2.61357 24.1867 3.09357 24.1867C3.6269 24.1867 4.08023 24.2934 4.48023 24.5334C4.88023 24.7734 5.2269 25.0934 5.44023 25.5201C5.68023 25.9467 5.7869 26.4267 5.7869 26.9867C5.7869 27.5467 5.68023 28.0267 5.44023 28.4267C5.20023 28.8534 4.88023 29.1734 4.48023 29.4134C4.05357 29.6267 3.60023 29.7601 3.0669 29.7601ZM3.01357 29.0934C3.41357 29.0934 3.76023 29.0134 4.05357 28.8267C4.3469 28.6401 4.61357 28.4001 4.77357 28.0801C4.96023 27.7601 5.04023 27.3867 5.04023 26.9601C5.04023 26.5334 4.96023 26.1601 4.77357 25.8401C4.5869 25.5201 4.3469 25.2801 4.05357 25.0934C3.76023 24.9067 3.41357 24.8267 3.01357 24.8267C2.61357 24.8267 2.2669 24.9067 1.97357 25.0934C1.65357 25.2801 1.41357 25.5201 1.25357 25.8401C1.0669 26.1601 0.986901 26.5334 0.986901 26.9601C0.986901 27.3867 1.0669 27.7601 1.25357 28.0801C1.44023 28.4001 1.68023 28.6401 1.97357 28.8267C2.29357 29.0134 2.64023 29.0934 3.01357 29.0934Z" fill="black"/>
<path d="M7.20052 31.76C6.93385 31.76 6.69385 31.7067 6.45385 31.6267C6.21385 31.5467 6.02719 31.4134 5.86719 31.2534L6.21385 30.6934C6.34719 30.8267 6.50719 30.9334 6.66719 31.0134C6.82719 31.0934 7.01385 31.12 7.20052 31.12C7.44052 31.12 7.65385 31.04 7.84052 30.9067C8.02719 30.7734 8.18719 30.5334 8.34719 30.1867L8.69385 29.3867L8.77385 29.28L11.0139 24.2134H11.7339L8.98719 30.32C8.82719 30.6667 8.66719 30.96 8.48052 31.1734C8.29385 31.3867 8.10719 31.52 7.89385 31.6267C7.70719 31.7334 7.46719 31.76 7.20052 31.76ZM8.64052 29.8667L6.13385 24.24H6.90719L9.14719 29.2534L8.64052 29.8667Z" fill="black"/>
</g>
</g>
<defs>
<clipPath id="clip0_2376_4803">
<rect width="70" height="32" fill="white"/>
</clipPath>
<clipPath id="clip1_2376_4803">
<rect width="69.6" height="32" fill="white"/>
</clipPath>
</defs>
</svg>
